<?xml version="1.0" encoding="UTF-8" standalone="no"?>
<svg
   xmlns:dc="http://purl.org/dc/elements/1.1/"
   xmlns:cc="http://creativecommons.org/ns#"
   xmlns:rdf="http://www.w3.org/1999/02/22-rdf-syntax-ns#"
   xmlns:svg="http://www.w3.org/2000/svg"
   xmlns="http://www.w3.org/2000/svg"
   xmlns:sodipodi="http://sodipodi.sourceforge.net/DTD/sodipodi-0.dtd"
   xmlns:inkscape="http://www.inkscape.org/namespaces/inkscape"
   width="308.7511mm"
   height="181.75111mm"
   version="1.1"
   viewBox="0 0 1094 644.00001"
   id="svg162"
   sodipodi:docname="curriculum.svg"
   inkscape:version="0.92.5 (2060ec1f9f, 2020-04-08)">
  <metadata
     id="metadata166">
    <rdf:RDF>
      <cc:Work
         rdf:about="">
        <dc:format>image/svg+xml</dc:format>
        <dc:type
           rdf:resource="http://purl.org/dc/dcmitype/StillImage" />
      </cc:Work>
    </rdf:RDF>
  </metadata>
  <sodipodi:namedview
     pagecolor="#ffffff"
     bordercolor="#666666"
     borderopacity="1"
     objecttolerance="10"
     gridtolerance="10"
     guidetolerance="10"
     inkscape:pageopacity="0"
     inkscape:pageshadow="2"
     inkscape:window-width="1366"
     inkscape:window-height="703"
     id="namedview164"
     showgrid="false"
     inkscape:zoom="0.2102413"
     inkscape:cx="1004.8397"
     inkscape:cy="356.45749"
     inkscape:window-x="0"
     inkscape:window-y="0"
     inkscape:window-maximized="1"
     inkscape:current-layer="svg162" />
  <defs
     id="defs8">
    <filter
       id="c"
       x="-0.047125001"
       y="-0.029124999"
       width="1.0942"
       height="1.0582"
       style="color-interpolation-filters:sRGB">
      <feGaussianBlur
         stdDeviation="4.0336282"
         id="feGaussianBlur2" />
    </filter>
    <filter
       id="d"
       x="-0.048"
       y="-0.048"
       width="1.096"
       height="1.096"
       style="color-interpolation-filters:sRGB">
      <feGaussianBlur
         stdDeviation="2.9796325"
         id="feGaussianBlur5" />
    </filter>
  </defs>
  <rect
     x="0"
     y="-1.7053026e-13"
     width="1094"
     height="644"
     id="rect10"
     style="fill:#227dff" />
  <rect
     transform="rotate(-14.999991)"
     x="299.73483"
     y="263.06784"
     width="205.43088"
     height="332.39145"
     id="rect12"
     style="fill:#ffe0ae;stroke-width:1.00000429" />
  <g
     transform="matrix(0.96593,-0.25882,0.25882,0.96593,553.77999,-278.762)"
     id="g66"
     style="fill:#d1d1d1;fill-opacity:0.56328999">
    <rect
       x="-282.14001"
       y="476.04001"
       width="162.23"
       height="5.3066001"
       id="rect14" />
    <rect
       x="-282.14001"
       y="461.54001"
       width="162.23"
       height="5.3066001"
       id="rect16" />
    <rect
       x="-282.14001"
       y="490.53"
       width="162.23"
       height="5.3066001"
       id="rect18" />
    <rect
       x="-282.14001"
       y="505.03"
       width="162.23"
       height="5.3066001"
       id="rect20" />
    <rect
       x="-282.14001"
       y="542.07001"
       width="162.23"
       height="5.3066001"
       id="rect22" />
    <rect
       x="-282.14001"
       y="527.57001"
       width="162.23"
       height="5.3066001"
       id="rect24" />
    <rect
       x="-282.14001"
       y="556.56"
       width="162.23"
       height="5.3066001"
       id="rect26" />
    <rect
       x="-282.14001"
       y="571.06"
       width="162.23"
       height="5.3066001"
       id="rect28" />
    <rect
       x="-282.14001"
       y="595.66998"
       width="74.190002"
       height="2.8610001"
       id="rect30" />
    <rect
       x="-282.14001"
       y="604.64001"
       width="74.190002"
       height="2.8610001"
       id="rect32" />
    <rect
       x="-282.14001"
       y="613.60999"
       width="74.190002"
       height="2.8610001"
       id="rect34" />
    <rect
       x="-282.14001"
       y="622.58002"
       width="74.190002"
       height="2.8610001"
       id="rect36" />
    <rect
       x="-282.14001"
       y="631.54999"
       width="74.190002"
       height="2.8610001"
       id="rect38" />
    <rect
       x="-282.14001"
       y="640.51001"
       width="74.190002"
       height="2.8610001"
       id="rect40" />
    <rect
       x="-282.14001"
       y="649.47998"
       width="74.190002"
       height="2.8610001"
       id="rect42" />
    <rect
       x="-282.14001"
       y="658.45001"
       width="74.190002"
       height="2.8610001"
       id="rect44" />
    <g
       transform="translate(88.041)"
       id="g62">
      <rect
         x="-282.14001"
         y="595.66998"
         width="74.190002"
         height="2.8610001"
         id="rect46" />
      <rect
         x="-282.14001"
         y="604.64001"
         width="74.190002"
         height="2.8610001"
         id="rect48" />
      <rect
         x="-282.14001"
         y="613.60999"
         width="74.190002"
         height="2.8610001"
         id="rect50" />
      <rect
         x="-282.14001"
         y="622.58002"
         width="74.190002"
         height="2.8610001"
         id="rect52" />
      <rect
         x="-282.14001"
         y="631.54999"
         width="74.190002"
         height="2.8610001"
         id="rect54" />
      <rect
         x="-282.14001"
         y="640.51001"
         width="74.190002"
         height="2.8610001"
         id="rect56" />
      <rect
         x="-282.14001"
         y="649.47998"
         width="74.190002"
         height="2.8610001"
         id="rect58" />
      <rect
         x="-282.14001"
         y="658.45001"
         width="74.190002"
         height="2.8610001"
         id="rect60" />
    </g>
    <rect
       x="-282.14001"
       y="422.29001"
       width="55.033001"
       height="11.828"
       id="rect64" />
  </g>
  <rect
     x="483.616"
     y="149.96999"
     width="205.42999"
     height="332.39001"
     id="rect68"
     style="opacity:0.12300002;filter:url(#c)" />
  <rect
     x="489.616"
     y="149.96999"
     width="205.42999"
     height="332.39001"
     id="rect70"
     style="fill:#ffe0ae" />
  <rect
     x="618.41199"
     y="174.53999"
     width="55.033001"
     height="55.033001"
     id="rect72"
     style="fill:#d1d1d1;fill-opacity:0.56328999" />
  <rect
     x="511.21399"
     y="174.53999"
     width="55.033001"
     height="11.828"
     id="rect74"
     style="fill:#d1d1d1;fill-opacity:0.56328999" />
  <rect
     x="511.21399"
     y="315.76999"
     width="55.033001"
     height="11.828"
     id="rect76"
     style="fill:#d1d1d1;fill-opacity:0.56328999" />
  <rect
     x="511.21399"
     y="192.12999"
     width="28.229"
     height="6.6402998"
     id="rect78"
     style="fill:#d1d1d1;fill-opacity:0.56328999" />
  <rect
     x="511.21399"
     y="230.68001"
     width="87.294998"
     height="5.3066001"
     id="rect80"
     style="fill:#d1d1d1;fill-opacity:0.56328999" />
  <rect
     x="511.21399"
     y="216.18999"
     width="87.294998"
     height="5.3066001"
     id="rect82"
     style="fill:#d1d1d1;fill-opacity:0.56328999" />
  <g
     transform="translate(574.31149,-237.4)"
     id="g92"
     style="fill:#d1d1d1;fill-opacity:0.56328999">
    <rect
       x="-63.097"
       y="581.25"
       width="74.190002"
       height="2.8610001"
       id="rect84" />
    <rect
       x="-63.097"
       y="589.64001"
       width="74.190002"
       height="2.8610001"
       id="rect86" />
    <rect
       x="-63.097"
       y="598.02002"
       width="74.190002"
       height="2.8610001"
       id="rect88" />
    <rect
       x="-63.097"
       y="606.40997"
       width="74.190002"
       height="2.8610001"
       id="rect90" />
  </g>
  <g
     transform="translate(577.97989,-241.592)"
     id="g102"
     style="fill:#d1d1d1;fill-opacity:0.56328999">
    <rect
       x="21.275"
       y="585.44"
       width="74.190002"
       height="2.8610001"
       id="rect94" />
    <rect
       x="21.275"
       y="593.83002"
       width="74.190002"
       height="2.8610001"
       id="rect96" />
    <rect
       x="21.275"
       y="602.21002"
       width="74.190002"
       height="2.8610001"
       id="rect98" />
    <rect
       x="21.275"
       y="610.59998"
       width="74.190002"
       height="2.8610001"
       id="rect100" />
  </g>
  <g
     transform="translate(574.31149,-192.438)"
     id="g112"
     style="fill:#d1d1d1;fill-opacity:0.56328999">
    <rect
       x="-63.097"
       y="581.25"
       width="74.190002"
       height="2.8610001"
       id="rect104" />
    <rect
       x="-63.097"
       y="589.64001"
       width="74.190002"
       height="2.8610001"
       id="rect106" />
    <rect
       x="-63.097"
       y="598.02002"
       width="74.190002"
       height="2.8610001"
       id="rect108" />
    <rect
       x="-63.097"
       y="606.40997"
       width="74.190002"
       height="2.8610001"
       id="rect110" />
  </g>
  <g
     transform="translate(577.97989,-196.631)"
     id="g122"
     style="fill:#d1d1d1;fill-opacity:0.56328999">
    <rect
       x="21.275"
       y="585.44"
       width="74.190002"
       height="2.8610001"
       id="rect114" />
    <rect
       x="21.275"
       y="593.83002"
       width="74.190002"
       height="2.8610001"
       id="rect116" />
    <rect
       x="21.275"
       y="602.21002"
       width="74.190002"
       height="2.8610001"
       id="rect118" />
    <rect
       x="21.275"
       y="610.59998"
       width="74.190002"
       height="2.8610001"
       id="rect120" />
  </g>
  <rect
     x="511.21399"
     y="433.76999"
     width="74.190002"
     height="2.8610001"
     id="rect124"
     style="fill:#d1d1d1;fill-opacity:0.56328999" />
  <rect
     x="511.21399"
     y="442.16"
     width="74.190002"
     height="2.8610001"
     id="rect126"
     style="fill:#d1d1d1;fill-opacity:0.56328999" />
  <rect
     x="634.00201"
     y="444.19998"
     width="39.443001"
     height="0.82306999"
     id="rect128"
     style="fill:#d1d1d1;fill-opacity:0.56328999" />
  <rect
     x="586.26898"
     y="467.36996"
     width="12.122"
     height="2.6052999"
     id="rect130"
     style="fill:#d1d1d1;fill-opacity:0.56328999" />
  <rect
     x="511.21399"
     y="259.67999"
     width="162.23"
     height="5.3066001"
     id="rect132"
     style="fill:#d1d1d1;fill-opacity:0.56328999" />
  <rect
     x="511.21399"
     y="245.18001"
     width="162.23"
     height="5.3066001"
     id="rect134"
     style="fill:#d1d1d1;fill-opacity:0.56328999" />
  <rect
     x="511.21399"
     y="274.16998"
     width="162.23"
     height="5.3066001"
     id="rect136"
     style="fill:#d1d1d1;fill-opacity:0.56328999" />
  <rect
     x="511.21399"
     y="288.66998"
     width="162.23"
     height="5.3066001"
     id="rect138"
     style="fill:#d1d1d1;fill-opacity:0.56328999" />
  <path
     d="m 638.79199,442.37 c 0.28086,-0.13886 0.33482,-0.16855 -0.44108,0.26066 -0.0525,0.0291 0.10279,-0.062 0.15339,-0.0943 0.18842,-0.12019 0.36542,-0.25312 0.54215,-0.38961 0.2898,-0.23183 0.56349,-0.48278 0.83711,-0.73322 0.24248,-0.22601 0.51629,-0.41504 0.78285,-0.61108 0.39157,-0.29367 0.80929,-0.54828 1.2272,-0.80192 0.53684,-0.32183 1.0828,-0.66334 1.6999,-0.80565 0.18667,-0.0411 0.37732,-0.0485 0.56764,-0.0495 0.11231,0.006 0.22798,-0.0118 0.33916,0.0114 0.0647,0.0135 0.14195,0.0452 0.20303,0.0679 0.30372,0.14073 0.54986,0.37523 0.79013,0.60317 0.2541,0.23876 0.54111,0.43731 0.80707,0.66189 0.20373,0.1881 0.43247,0.34545 0.64192,0.5261 0.24195,0.21066 0.495,0.40811 0.76875,0.57567 0.1822,0.0984 0.36645,0.19164 0.56888,0.23878 0.18,0.0314 0.36341,0.0319 0.54556,0.033 0.25282,0.005 0.50397,0.002 0.75547,-0.0252 0.2618,-0.0483 0.51628,-0.12918 0.75819,-0.24063 0.10379,-0.0478 0.39281,-0.22976 0.30491,-0.15673 -0.10186,0.0846 -0.36107,0.324 -0.34766,0.19226 0.0142,-0.1392 0.2343,-0.153 0.35145,-0.22949 0.45069,-0.28793 0.84714,-0.64575 1.2473,-0.99738 0.32333,-0.24836 0.16267,-0.13126 0.8896,-0.53442 0.0471,-0.0261 0.11847,-0.0359 0.171,-0.0227 0.0849,0.0214 0.14398,0.0775 0.21301,0.1278 0.22769,0.18152 0.41499,0.40616 0.62918,0.60247 0.14988,0.13736 0.23022,0.19833 0.38803,0.32599 0.34222,0.26771 0.70092,0.50831 1.0953,0.69116 0.25267,0.10173 0.52096,0.13899 0.79091,0.15281 0.24116,0.007 0.48247,0.003 0.7237,0.003 0.24048,-0.008 0.45534,-0.0939 0.66453,-0.2077 0.0763,-0.0415 0.30244,-0.17046 0.22414,-0.13287 -0.15449,0.0742 -0.30212,0.16191 -0.45318,0.24286 0.36726,-0.27422 0.73727,-0.54704 1.0791,-0.85314 0.2507,-0.22451 0.29026,-0.27411 0.52673,-0.5181 0.35941,-0.39726 0.68268,-0.82671 0.94342,-1.2955 0.16006,-0.28776 0.2151,-0.42774 0.34924,-0.72706 0.24555,-0.59025 0.3642,-1.2148 0.4177,-1.8483 0.0377,-0.58427 -0.0483,-1.1349 -0.24353,-1.6836 -0.10655,-0.22751 -0.21272,-0.47077 -0.43013,-0.61154 -0.1143,-0.0492 -0.25867,-0.0963 -0.38507,-0.0642 -0.0359,0.009 -0.0684,0.0285 -0.10255,0.0426 0.19129,-0.10219 0.37047,-0.23133 0.57388,-0.30657 0.0644,-0.0238 -0.10033,0.0944 -0.14391,0.14752 -0.13876,0.16912 -0.24256,0.38234 -0.30057,0.59284 -0.0258,0.0936 -0.0402,0.18999 -0.0603,0.28498 -0.0811,0.72078 -0.003,1.4567 0.25676,2.136 0.0441,0.11516 0.0997,0.22558 0.14959,0.33837 0.24441,0.51688 0.62951,0.94121 1.0018,1.3677 0.60231,0.6701 1.2313,1.3152 1.8582,1.962 0.68146,0.68864 1.3443,1.3965 2.087,2.0204 0.23481,0.18001 0.42244,0.34485 0.72362,0.36867 0.16296,0.004 0.3258,-0.007 0.48866,-0.0111 -0.0288,0.0705 0.32472,-0.10458 0.24892,-0.0601 -1.0162,0.59665 -0.68481,0.40602 -0.45397,0.23424 0.0524,-0.0391 0.1034,-0.08 0.1551,-0.11999 0.25191,-0.18228 0.47641,-0.40062 0.7353,-0.57316 0.43772,-0.29481 0.70572,-0.49697 1.1711,-0.50868 0.14345,-7.8e-4 0.28688,0.002 0.43033,0.003 0.17677,-0.008 0.29465,0.002 0.4616,0.0608 0.20928,0.0894 0.39487,0.22691 0.57885,0.35919 0.15438,0.11022 0.31998,0.20361 0.46477,0.32686 0.0804,0.067 0.17145,0.1146 0.27285,0.13942 0.0168,0.002 0.0336,0.005 0.0504,0.008 l -0.69055,0.48015 c -0.0182,-0.005 -0.0363,-0.009 -0.0545,-0.014 -0.10696,-0.0376 -0.20514,-0.0935 -0.2903,-0.16902 -0.1437,-0.1198 -0.30424,-0.21549 -0.45566,-0.32489 -0.17843,-0.12777 -0.36024,-0.25966 -0.56819,-0.3348 -0.14741,-0.0417 -0.29526,-0.0438 -0.44796,-0.0397 -0.14271,-0.002 -0.28552,-0.004 -0.42817,7.8e-4 -0.39739,0.0281 -0.7727,0.32554 0.28368,-0.28886 -0.27405,0.15402 -0.4922,0.3877 -0.74822,0.56812 -0.40924,0.3233 -0.85056,0.73484 -1.3917,0.74651 -0.16499,0.005 -0.33074,0.0164 -0.49543,-2.9e-4 -0.29233,-0.0507 -0.50705,-0.23479 -0.72809,-0.42379 -0.72098,-0.64767 -1.3779,-1.3608 -2.0699,-2.0386 -0.63379,-0.6443 -1.2643,-1.292 -1.8812,-1.9525 -0.38499,-0.42751 -0.77109,-0.86186 -1.0083,-1.3932 -0.13392,-0.31092 -0.18766,-0.40625 -0.27765,-0.74144 -0.15468,-0.57616 -0.20022,-1.1772 -0.15946,-1.7711 0.0158,-0.0976 0.0247,-0.19655 0.0475,-0.29274 0.0516,-0.21775 0.15628,-0.43965 0.28571,-0.62142 0.0407,-0.0571 0.0751,-0.12351 0.13311,-0.16287 0.27418,-0.18599 0.56983,-0.33816 0.85475,-0.50724 0.0396,-0.009 0.0785,-0.0212 0.11883,-0.0256 0.14497,-0.0158 0.29187,0.0374 0.41489,0.10803 0.21981,0.16675 0.33713,0.4141 0.44401,0.66317 0.0611,0.17896 0.0926,0.25662 0.13535,0.44629 0.0937,0.41574 0.12905,0.84562 0.11651,1.2709 -0.006,0.0949 -0.01,0.19016 -0.019,0.28484 -0.0547,0.54726 -0.20916,1.0805 -0.39942,1.5944 -0.12658,0.28738 -0.1952,0.45937 -0.34593,0.73608 -0.25756,0.47279 -0.57645,0.90796 -0.93284,1.3107 -0.24399,0.25761 -0.26323,0.28736 -0.5226,0.52443 -0.33755,0.30853 -0.70645,0.5792 -1.0673,0.85932 -0.31268,0.18901 -0.62419,0.37997 -0.93803,0.56704 -0.28706,0.17111 -0.5854,0.31453 -0.92624,0.31559 -0.24327,0.002 -0.48684,0.006 -0.72992,-0.005 -0.2756,-0.0216 -0.54786,-0.0717 -0.80293,-0.18291 -0.39358,-0.19342 -0.75238,-0.4432 -1.0977,-0.71283 -0.16163,-0.13195 -0.23767,-0.19038 -0.39224,-0.33125 -0.21187,-0.1931 -0.39906,-0.41404 -0.63233,-0.58282 -0.0707,-0.0413 -0.10683,-0.0791 -0.1878,-0.0788 -0.0711,2.8e-4 -0.18144,0.0714 -0.14671,0.0505 0.85331,-0.51527 0.80003,-0.48252 0.53006,-0.30291 -0.41588,0.3504 -0.81329,0.72489 -1.2737,1.019 -0.59598,0.39734 -0.46105,0.31748 -1.3765,0.83144 -0.34049,0.19115 -0.71368,0.32217 -1.0983,0.38677 -0.25544,0.0238 -0.51128,0.0261 -0.76774,0.0227 -0.18668,-0.003 -0.37504,-0.006 -0.55771,-0.0495 -0.20445,-0.0594 -0.39439,-0.1557 -0.57739,-0.26373 -0.27203,-0.17628 -0.52953,-0.37368 -0.77529,-0.58504 -0.21372,-0.17551 -0.43575,-0.34048 -0.64052,-0.52704 -0.2669,-0.2247 -0.55189,-0.42749 -0.80527,-0.66824 -0.23559,-0.21919 -0.477,-0.44642 -0.78004,-0.56801 -0.18044,-0.057 -0.34012,-0.0625 -0.52804,-0.0539 -0.18535,0.004 -0.37081,0.0163 -0.55148,0.0613 -0.13863,0.0371 -0.27096,0.0813 -0.40427,0.13475 -0.2435,0.0977 -0.89482,0.43243 0.12779,-0.12875 -0.41638,0.25076 -0.83359,0.5011 -1.2234,0.79237 -0.26414,0.19517 -0.53671,0.38181 -0.78121,0.60138 -0.27858,0.25027 -0.55247,0.50609 -0.84333,0.74238 -0.5186,0.40759 -1.0717,0.7649 -1.6696,1.0504 l 0.65336,-0.52263 z"
     id="path140"
     inkscape:connector-curvature="0" />
  <g
     transform="matrix(0.99929,-0.028733,0.028605,1.0048,549.19999,-222.6456)"
     id="g150"
     style="opacity:0.30400002;filter:url(#d)">
    <rect
       transform="matrix(-0.70711,-0.70711,0.70711,-0.70711,0,0)"
       x="-447.53"
       y="-567.87"
       width="9.9393997"
       height="55.57"
       id="rect142"
       style="opacity:1" />
    <path
       d="m 28.422,599.97 -2.5103,-2.5103 27.773,-27.773 c 0,0 2.2465,-1.1419 2.9494,-0.43906 0.70283,0.70283 -0.43906,2.9494 -0.43906,2.9494 z"
       id="path144"
       inkscape:connector-curvature="0"
       style="opacity:1" />
    <path
       d="m -80.728,696.57 c -2.6615,-42.583 49.609,-35.519 59.636,-72.286"
       id="path146"
       inkscape:connector-curvature="0"
       style="fill-rule:evenodd;stroke:#c7c7c7;stroke-width:3.76209998" />
    <path
       d="m -75.264,712.01 -5.4309,-5.4309 -5.4309,-5.4309 122.22,-122.22 16.021,-8.3404 2.517,0.66438 0.66438,2.517 -8.3404,16.021 z"
       id="path148"
       inkscape:connector-curvature="0"
       style="opacity:1" />
  </g>
  <g
     transform="translate(568.76719,-218.8056)"
     id="g160">
    <rect
       transform="matrix(-0.70711,-0.70711,0.70711,-0.70711,0,0)"
       x="-447.53"
       y="-567.87"
       width="9.9393997"
       height="55.57"
       id="rect152"
       style="fill:#c7c7c7" />
    <path
       d="m 28.422,599.97 -2.5103,-2.5103 27.773,-27.773 c 0,0 2.2465,-1.1419 2.9494,-0.43906 0.70283,0.70283 -0.43906,2.9494 -0.43906,2.9494 z"
       id="path154"
       inkscape:connector-curvature="0"
       style="fill:#c7c7c7" />
    <path
       d="m -80.728,696.57 c -2.6615,-42.583 49.609,-35.519 59.636,-72.286"
       id="path156"
       inkscape:connector-curvature="0"
       style="fill:none;stroke:#c7c7c7;stroke-width:3.76209998" />
    <path
       d="m -75.264,712.01 -5.4309,-5.4309 -5.4309,-5.4309 122.22,-122.22 16.021,-8.3404 2.517,0.66438 0.66438,2.517 -8.3404,16.021 z"
       id="path158"
       inkscape:connector-curvature="0" />
  </g>
</svg>
