<?xml version="1.0" standalone="no"?>
<!DOCTYPE svg PUBLIC "-//W3C//DTD SVG 20010904//EN"
 "http://www.w3.org/TR/2001/REC-SVG-20010904/DTD/svg10.dtd">
<svg version="1.0" xmlns="http://www.w3.org/2000/svg"
 width="429.000000pt" height="429.000000pt" viewBox="0 0 429.000000 429.000000"
 preserveAspectRatio="xMidYMid meet">
<metadata>
Created by potrace 1.11, written by Peter Selinger 2001-2013
</metadata>
<g transform="translate(0.000000,429.000000) scale(0.100000,-0.100000)"
fill="#000000" stroke="none">
<path d="M1596 3548 c-8 -5 -13 -15 -9 -23 5 -13 77 -15 560 -14 325 2 556 6
560 12 18 30 -22 32 -557 33 -297 0 -546 -4 -554 -8z"/>
<path d="M1675 3448 c-104 -91 -199 -268 -220 -408 -4 -25 -9 -57 -11 -72 -2
-16 -2 -28 0 -28 3 0 73 55 158 121 84 67 222 176 307 243 85 66 168 133 185
148 l31 27 -207 1 -207 0 -36 -32z"/>
<path d="M2210 3472 c0 -4 12 -15 28 -24 15 -9 38 -27 52 -40 14 -13 57 -48
95 -77 39 -30 79 -62 90 -72 45 -40 350 -279 356 -279 21 0 -36 202 -78 278
-38 70 -62 101 -122 165 l-54 57 -184 0 c-100 0 -183 -4 -183 -8z"/>
<path d="M2817 3472 c-41 -5 -43 -25 -7 -87 80 -139 113 -284 106 -466 -2 -63
-9 -126 -15 -141 -6 -16 -8 -28 -6 -28 3 0 -7 -32 -22 -72 -61 -163 -184 -319
-323 -406 -51 -31 -112 -61 -138 -67 -62 -13 -97 -33 -100 -57 -3 -22 3 -27
76 -51 195 -64 383 -227 474 -412 62 -124 97 -284 92 -421 -2 -44 -9 -98 -18
-121 -18 -50 -19 -48 84 -95 250 -115 545 -154 698 -93 81 33 112 122 73 210
-27 60 -95 155 -161 223 -61 63 -307 268 -405 338 -113 81 -433 297 -517 348
-43 27 -78 51 -78 55 0 3 138 67 308 141 263 115 693 323 728 351 6 5 42 26
80 47 169 94 175 98 294 196 108 88 152 136 186 203 52 104 26 189 -80 260
-44 30 -139 66 -205 78 -14 3 -37 7 -51 10 -36 8 -128 24 -180 31 -25 3 -48 8
-51 9 -21 13 -750 27 -842 17z"/>
<path d="M877 3464 c-1 -1 -51 -4 -112 -8 -60 -3 -135 -10 -165 -16 -30 -5
-71 -12 -90 -15 -353 -56 -508 -168 -454 -328 22 -64 84 -145 150 -197 17 -14
62 -50 100 -81 66 -53 177 -122 329 -204 211 -114 262 -140 395 -201 124 -57
429 -194 593 -267 26 -11 47 -24 47 -27 0 -4 -46 -35 -102 -70 -56 -35 -140
-90 -187 -122 -47 -33 -137 -94 -200 -136 -104 -70 -254 -186 -391 -302 -177
-149 -300 -317 -300 -411 0 -34 36 -103 64 -121 35 -23 120 -37 224 -36 170 1
345 42 507 119 88 42 97 52 78 97 -16 39 -23 188 -11 252 5 25 10 56 13 70 12
66 19 90 48 160 36 87 64 134 127 210 113 136 278 244 423 274 21 5 27 12 27
34 0 25 -5 29 -73 49 -79 24 -208 98 -270 154 -86 77 -189 234 -226 345 -30
90 -33 108 -37 239 -5 165 18 273 87 413 39 77 49 106 40 115 -8 8 -103 11
-322 12 -171 0 -311 -1 -312 -1z"/>
<path d="M2079 3401 c-46 -37 -194 -155 -329 -262 -135 -107 -259 -205 -276
-218 -29 -21 -31 -26 -27 -74 7 -84 31 -166 79 -266 82 -169 235 -296 430
-356 45 -14 93 -25 107 -25 16 0 27 -7 30 -17 9 -31 7 -93 -2 -93 -16 0 -22
-52 -10 -81 8 -21 20 -30 45 -35 39 -7 83 16 85 44 2 31 -3 57 -12 67 -5 5 -9
31 -9 57 0 44 2 48 28 53 372 78 592 320 616 677 l3 58 -241 193 c-132 106
-284 227 -337 269 l-95 76 -85 -67z"/>
<path d="M1985 2071 c-108 -31 -216 -92 -298 -170 -45 -42 -127 -145 -127
-159 0 -6 -3 -12 -7 -14 -15 -6 -63 -117 -83 -192 -25 -89 -29 -220 -11 -308
10 -48 16 -58 39 -65 15 -5 144 -8 287 -7 143 1 271 -3 285 -8 14 -5 35 -19
48 -30 l22 -22 31 30 30 29 295 1 c189 1 299 5 306 12 40 40 45 288 8 406 -37
119 -107 242 -180 317 -77 80 -206 157 -307 183 -97 25 -101 24 -96 -28 5 -39
2 -48 -22 -70 -40 -37 -88 -35 -125 4 -27 29 -31 52 -15 98 6 15 -6 15 -80 -7z"/>
<path d="M1502 1081 c35 -83 76 -146 139 -214 l61 -67 437 0 437 0 51 53 c28
28 66 75 85 102 33 48 78 143 78 164 0 6 -106 9 -291 8 l-291 -2 -33 -39 -33
-39 -36 39 -36 39 -294 1 -294 2 20 -47z"/>
<path d="M1593 754 c-44 -32 -6 -34 537 -34 529 0 539 0 550 20 9 16 8 20 -7
21 -10 1 -254 3 -541 3 -380 2 -528 -1 -539 -10z"/>
</g>
</svg>
