<?xml version='1.0' encoding='utf-8'?>
<svg xmlns="http://www.w3.org/2000/svg" viewBox="0 0 841.9 595.3"><path d="m318.3 220.3c-5.4 10.9-7.6 22.8 5.4 32s19.9 11.4 26.2 5.2 11.7-18.7 11.7-29.2-11.7-22.6-27.7-22.6c.1.1-10.1 3.8-15.6 14.6z" fill="#ebe200"/><g fill-rule="evenodd"><path d="m326.1 151.4c7.4-.2 14.9-.2 22.3-.5 4.5-.2 9-.6 13.5-.9 2.7-.2 5.4-.4 8.1-.6.8-.1 1.5.2 2.1.7 1.9 1.6 3.2 3.7 4.8 5.6.6.8.6 1.5.3 2.3-.3.6-.5 1.2-.8 1.8-3 5.2-17.6 34.6-19.8 39.3-.3.5-.5 1.1-.8 1.6-.9 1.8-1.1 3.5.1 5.4 3.5 6.4 3.7 21.6-2.7 31.9-.9 1.4-1.6 2.9-2.5 4.4-.8 1.3-.8 2.4.2 3.6 1.8 2.4 6.4 8.6 6.4 9.5 0 1.2-.5 2.2-1.8 2.6-1.8.6-28.1 8.2-29.6 8.6-.6.2-1 .5-1.2 1.2-.9 2.4-2 4.8-1.9 7.4 0 1.1-.2 1.3-1.4 1.3-2 .1-3.9.3-5.9.3-1 0-1.6.3-2 1.2-.6 1.3-3.6 7.9-4.7 9.9-.7 1.4-1.5 1.7-2.9 1-1.8-.9-3.5-2-5.3-3-.1-.1-.2-.1-.3-.2-1.8-1.5-1.9-2.5-.7-4.5.9-1.4 1.7-2.9 2.5-4.4.5-1 .4-1.2-.7-1.1-.6 0-14.2 1.4-15.4 1.5-1.3.1-1.4.1-1.7 1.3-.6 2.7-3.8 25.5-4 26.8-.6 3.9.6 7.2 3 10.2.4.5.8.9 1.1 1.4.5.8.4 1.4-.2 2.1-.6.6-1.1.8-1.7.2-.8-.6-1.5-1.4-2.1-2.2s-1-1.6-1.4-2.5c-.6-1.2-1.1-2.3-2.1-3.3-1.1-1.2-1.2-2.7-.7-4.2.5-1.4 2.7-17.4 3.1-20.2s.8-5.7 1.2-8.5c0-.2 0-.5 0-.7.1-.6-19.9-1-20.8-1-1-.1-1.1-.1-1.3 1-.5 1.9-5.4 30.7-5 31.4.5 1 3.8 6.7 5 8.5.5.7.6 1.4.3 2.2-.4 1-1.4 1.4-2.3.7-.5-.4-.8-.9-1.1-1.4-1.3-2-5-7.5-5.6-8.1-1-.9-1.2-2-.8-3.3 1.5-5.3 4.5-21.1 4.7-23.4.3-2.3.7-4.6 1-6.9.2-1 .1-1.1-.9-1.2-2.1-.3-37.8-2-40.2-2.2-1.1-.1-2-.6-2.8-1.3-2.2-1.9-5.6-8.1-5.9-8.7-.8-1.3-.9-2.7 0-3.9 2.6-3.4 8.7-16.3 10-18.9.2-.3.2-.8.3-1.1-.3 0-.7-.1-1 0-.9.2-1.5 0-2-.8-.5-.7-.4-1.5.1-2.2.2-.4.7-.6 1.1-.8.9-.4 1.9-.6 2.9-.9s1.7-.8 2.1-1.8c.6-1.6 1.3-3.1 2-4.6.5-1.1.4-2.2-.1-3.3-1.9-4-9-17.2-10.6-19.8-.4-.6-.9-1.2-1.2-1.8-.9-1.5-.3-2.8 1.4-3.1 1.1-.2 24-2.8 26.8-2.9 1.2-.1 1.8-.5 2.3-1.6 1.1-2.6 3.2-8.3 3.3-8.6.1-.5 9.8-20.7 15.3-29.9.3-.6.6-1.2.9-1.8.4-1.1 1.3-1.7 2.5-1.8 1.5-.2 3.1-.2 4.7-.3 3.2-.2 25.2-1.6 30.2-1.9 3.3-.2 6.6-.5 9.9-.7 1.2 0 20.4-.2 20.4-.1zm-35.2 121.9c4.4 0 8.7-.7 13-1.5 1-.2 1.7-.7 2.1-1.7.3-.8.7-1.7 1.1-2.5.3-.6.2-1.1-.2-1.6-.7-1-1.4-2-2-3-.3-.5-.6-1.1-.3-1.7.8-1.4 3.1-1.7 4.1-.4.2.2.4.5.6.7.3.3.6.3.7-.1.5-1.4 1-2.8 1.4-4.3.1-.3-.2-.8-.4-1.1-.3-.3-.7-.5-1-.7-6.1-4.1-8.3-7.4-7.5-25.1.3-3 1.5-10.2 3.7-16.7 2.1-6.4 7.8-12.3 14.6-15.4 6.9-3.1 19.7-4.6 28.6 1.2.6.4 1.2.8 1.8 1.2.9.5 1 .6 1.5-.4 1-1.8 1.9-3.6 2.7-5.5 5.4-11.4 10.5-22.9 16.8-33.8.2-.4.3-.9.5-1.3-.5 0-1-.1-1.5 0-1 0-23.8 1.7-25.8 1.8-4.3.3-8.6 1-12.9 1-3 0-6 .5-9 .6-7 .2-29.1.4-33.1.4-7.2.1-21.9.2-22.1.2-1.2-.2-2 .4-2.6 1.5-.8 1.5-22.2 46.7-22.4 47-1 2.2-18.3 39.5-19.7 42-1.7 3-6.8 13-7.6 15.1-.5 1.3-.4 1.4 1 1.4.9 0 4.8.7 4.9.7 2.8.6 30.4 1.8 36.4 2.1 6.4.2 28.1-.1 32.6-.1zm-48.8-75.5h.3c.8 0 1.7.6 1.9 1.4.2.7-.2 1.6-.9 1.9-.4.2-.9.3-1.4.4-.7.1-1.4.2-2.1.3-1.1 0-1.7.5-2.2 1.4-3.4 6-6.9 12-10.3 17.9-1 1.7-1.9 3.4-2.9 5.2-.4.7-.4 1.4 0 2.1.2.5.6.9.9 1.3.7 1.1 1.5 2.2 2.1 3.3.7 1.3.4 2.3-.8 3.1-.6.4-1.3.7-1.9.9-1.7.6-3.4 1.1-5.2 1.6-.9.2-1.4.7-1.8 1.6-3.1 6.6-6.2 13.2-9.4 19.8-.6 1.3-.6 2.6.2 3.7 1 1.4 2.1 2.6 3.2 3.9 1.1 1.2 1.2 1.2 1.9-.2 3.6-7.2 7.4-14.4 10.9-21.7 4.4-9.1 8.5-18.4 13.1-27.4 4.5-9 8.5-18.3 12.4-27.6 1-2.4 2.1-4.8 3.2-7.3.7-1.5 1.3-3 2-4.4.9-2 1.8-3.9 2.8-5.8 1.1-2.2 2.3-4.3 3.5-6.5.3-.6.7-1.1.9-1.7.5-1.2.4-1.8-.5-2.8-.8-.8-1.6-1.7-2.3-2.5-.6-.7-.7-.7-1.2.2-.8 1.4-1.6 2.8-2.4 4.2-5.5 10.4-10.3 21.1-14.7 32-.2.4-.3.8-.4 1.2s.1.5.5.5c0 .1.2 0 .6 0zm59.3-38.2c1.3-.2 2.5-.3 3.8-.3 8-.2 16.1-.6 24.1-.7 5.5 0 10.9-.7 16.3-1 5.7-.3 11.4-.6 17.1-1l9.3-.6c1.3-.1 1.4-.5.6-1.6-1.2-1.5-2.7-2.5-4.6-2.4-4.4.1-24.6 1.2-30.4 1.3-6.2.2-26.3.1-30 .3-5.9.3-31.4 1.7-36.3 2.1-1.5.1-6.6.7-7.6 1-.9.2-1 .7-.4 1.4 1.1 1.3 2.3 2.2 4.1 2.1 3.4-.1 6.8-.2 10.2-.2 8-.1 15.9-.2 23.8-.4zm52.2 51.4c-.8-4.7-3.8-10.4-15.6-12.4-6.8-1.2-12.4 1.3-14.3 2.1-1.4.6-2.9 1.2-4.3 1.9-1.7.9-3.3 1.9-4.5 3.5-1 1.5-2.1 2.9-2.9 4.5-4.8 9-7.3 18.5-6.5 28.7.2 2.8.8 5.6 1.7 8.3.8 2.4 2.3 4.2 4.6 5.3 1.4.7 8.1 1.9 10 2 12.5-.3 19.6-6.4 21.4-7.4 1.1-.6 2-1.3 2.6-2.4.6-1 1.2-2 1.9-2.8 1.1-1.4 2.9-4.6 4.6-8.9s4.4-11.3 1.3-22.4zm-118.4-8.3c-.3-.1-.5-.2-.7-.1-1 .1-1.9.2-2.9.3-5.9.5-11.7 1-17.6 1.5-2 .2-2.1.2-1.1 2.1 2 3.7 4 7.4 5.9 11.1.9 1.6 1.6 3.4 2.4 5 .5.9.8.9 1.4.1.2-.3.4-.6.6-.9 1.1-1.7 2.1-3.5 3.2-5.2 1.8-2.8 7.3-11.6 8.2-13.1.3-.2.4-.4.6-.8zm91.7 59.5c.7-.1 1.3-.2 1.9-.4 3.7-.8 7.5-1.5 11.2-2.5 3.5-1 6.9-2.4 10.3-3.6.3-.1.7-.2 1-.4.8-.4 1-.9.6-1.8-.3-.8-.8-1.5-1.3-2.2-.8-1.1-1.7-2.1-2.6-3.2-.4-.5-.7-.4-1.2 0-4.9 4.1-10.5 6.9-16.5 8.8-2.3.7-3.7 2.4-3.9 4.8.1.1.4.3.5.5zm-21.3 23.2c.3-.2.5-.3.6-.4.2-.3.4-.7.6-1.1 2-4.1 4.1-8.3 6.1-12.4.1-.3.3-.5.4-.8.2-.5 0-.8-.6-.8-1 0-2 .3-3-.2-.1-.1-.5.1-.7.3-.2.3-.3.6-.5.9-1.7 3.8-3.4 7.6-5.1 11.4-.1.3-.3.5-.3.8 0 .2 0 .6.1.7.7.6 1.5 1 2.4 1.6zm9.5-28.2c-.2.1-.7.3-.9.6-.8 1.9-1.6 3.8-2.3 5.7-.2.5 0 .8.4 1.1 1.4.8 2.5.6 3.4-.8.7-1.1 1.3-2.3 1.8-3.5 1.2-2.4 1.2-2.4-1.7-3-.1 0-.3 0-.7-.1zm3 15.8c.7 0 1.4.1 1.7-.6.6-1.3 1.2-2.6 1.7-3.9 0-.1-.2-.4-.3-.4-1.5.3-2.9.6-4.3.9-.1 0-.3.2-.4.4-.6.9-1 1.9-.9 3 .8.2 1.6.5 2.3.7.1-.1.1-.1.2-.1zm.7-9.2c1.3-.2 2.4-.3 3.5-.6.4-.1.8-.6 1-.9.4-1 .8-2.1 1.1-3.2.3-.9-.1-1.3-1-1.1-.4.1-.8.2-1.1.5-1.4 1.4-2.7 3-3.5 4.9-.1.1 0 .3 0 .4zm-98.5-28.5c1.2-.4 2.3-.7 3.4-1.1.2-.1.5-.6.4-.8-.3-.8-.7-1.6-1.1-2.4-.3-.4-.7-.4-1 .1-.6 1.2-1.2 2.3-1.8 3.5-.2.1 0 .4.1.7z"/><path d="m352.6 317.9c.4.2 1 .5 1.4.9 2.8 3.1 5.6 6.3 8.3 9.4 1.2 1.4 2.4 3 3.6 4.5.6.8.7.8 1.7.4 1.8-.9 3.6-1.8 5.2-3.1 1.1-1 2.6-.7 3.9-1 .2 0 .5.2.8.4.9.7 1.8 1.5 2.6 2.2 1.4 1.3 2.7 2.7 4.1 4 .7.7 1.4 1.3 2.1 2 1.4 1.6 2.9 3.1 4.1 4.7 1.9 2.6 4 4.9 6.3 7.1 1.8 1.8 3.6 3.7 5.4 5.5 1.3 1.3 2.6 2.5 3.8 3.8 1.1 1.2 2.2 2.4 3.2 3.7 1.5 1.9 1.5 2.8 0 4.6-.8.9-1.8 1.5-2.7 2.3-1 .8-2.1 1.5-3.1 2.4-1.9 1.9-3.8 3.8-5.7 5.7-.8.8-1.7 1.5-2.6 2.2-.9.8-1.9 1.6-2.8 2.5-2.2 2.1-4.5 4.2-7 5.9-.9.6-1.7 1.3-2.6 1.9-1 .7-1.4.8-2.2 0-1.6-1.7-3.2-3.5-4.8-5.3-.9-1-1.8-1.9-2.6-2.9-2.1-2.6-4.6-4.9-6.9-7.3-.3-.3-.7-.5-1-.7-2.3-1.8-2.4-1.8-4.7-.2-1.3.9-2.7 1.4-4.2 1.9-.8.2-1.5 0-2-.7-.7-.9-34.3-34.8-37.7-37.3-2.3-1.7-3.7-3-2-4.4 1.4-1.2 33.5-13.5 35.6-14.7.2-.2 1.3-.2 2.5-.4zm-1.5 3c-.5.2-1 .3-1.5.4-3.2 1.1-29.9 12.6-31.8 13.6-.4.2-.5.6-.1.9.8.7 36.2 35.6 37.3 36.5.9.7 1.5.7 2.4.2 2.3-1.3 24.1-13.5 25.3-14.1 1.8-.9 1.9-1.4.7-2.9-.2-.2-.4-.5-.6-.7-1-.9-24.8-27.4-27.9-31-.8-.9-1.9-1.6-2.9-2.4-.2-.3-.6-.4-.9-.5zm36.2 36.1c0 1-.4 1.8-1.2 2.2-.6.3-18.2 10.3-19.7 11.1-.9.5-.9.5-.1 1.2 1.4 1.3 12.8 13.3 13.8 14.3.4.4 1 .7 1.5 1s.9.2 1.3-.2c1.7-1.3 11.8-9.4 13.9-11.8 1.9-2.1 7.5-7.1 8.3-7.6 2.1-1.3 2.2-2.1.6-3.9-2.2-2.4-10.9-11.6-13-13.8-1.1-1.1-14.8-16.8-17.1-17.4-.6-.2-5.9 2.7-6.3 3.1-.9.7-1 1.1-.2 1.9 1 1.1 16.1 16 17 17 .6.8 1.1 1.8 1.2 2.9z"/><path d="m465.1 378.2c4.2.4 8.4 1.3 12.6 1.8h.2c3.2.4 6.4.8 9.6 1.2 2.2.3 4.4.5 6.6.8.9.1 1.4.6 1.2 1.6-.1.7-.5 1.3-.6 2-.5 2.3-3.6 14.4-4.6 18.2-.1.5-.3 1-.4 1.6-.4 2.3-.8 4.7-1.3 7-.2.9-1.2 1.7-2.1 1.5-.6-.1-1.2-.1-1.7-.4-3-.6-26-5.3-29.6-6.1-1.7-.4-18-3.9-18.7-3.9-1.4 0-1.9-.4-1.7-1.9s.7-2.9 1.1-4.3c.8-2.8 3.1-10.3 3.5-11.3.6-1.4 3.7-7.8 4.6-9.5.3-.6.8-.8 1.5-.8.4.2 15.9 2.2 19.8 2.5zm19.8 33.2c.5 0 1 0 1.2-.6.4-1.2.8-2.5 1.1-3.8.3-1.4.5-2.8.9-4.2.6-2.9 1.2-5.8 2-8.6s1.4-5.6 2-8.4c.3-1.3.2-1.4-1.1-1.7-4.4-1.1-8.8-1.7-13.3-2.2-1-.1-1.9-.2-2.9-.3-1.9-.3-12.4-2-15.8-2.4-3.9-.4-7.9-.7-11.8-1.1-1.1-.1-1.8.3-2.3 1.3-2.5 4.6-5.9 14.8-5.9 15-.4 1.7-.8 3.5-1.3 5.2-.5 1.9-.5 2 1.6 2.4 3.4.7 6.9 1.1 10.2 2.1 3.7 1.1 7.4 2 11.1 2.9.4.1.8.2 1.2.2 1.5.3 3 .6 4.6.9 1.4.4 15.4 2.8 18.5 3.3z"/><path d="m581.4 415.7c.3.2.7.3 1 .5 1.3.9 2.7 1.8 4 2.7 3.7 2.3 12.3 7.9 13 8.4 1.6 1.1 14.4 10.7 14.9 11.2 1.1 1 2.1 2.1 3.2 3.1.2.2.4.5.3.8-.2 1.1-.3 2.2-1.1 3.2-1.6 2-3.2 4-4.6 6.2-1.9 2.9-7.1 9.5-7.5 10.1-.5.7-.9.9-1.7.6-1.5-.7-2.9-1.4-4.4-2.1-2.8-1.2-17.2-9.8-18.1-10.2-1.9-1-15.8-9.5-18-11-1.3-.9-1.4-1.5-.3-2.7.4-.4 5.1-5.9 6.1-7 0 0 .1-.1.1-.2 1.8-2 8.6-9.3 10.6-11.3.5-.6 1.1-1.1 1.7-1.6.2-.4.5-.5.8-.7zm34.2 26.8c-.2-.3-24.4-18.2-26.1-19.3-2.2-1.4-4.4-2.8-6.7-4.2-1.1-.7-1.3-.6-2.2.3s-10.9 11.8-11.9 12.9c-.6.7-4.6 3.6-4.5 4.4 0 .5 2.3 2.2 2.4 2.2.6.4 2.2 1.6 2.3 1.6 4.2 2.7 26 15.5 28.6 17 1.5.9 3 1.7 4.5 2.6.5.3.8.2 1.2-.2.6-.8 1.2-1.5 1.9-2.2 3.4-3.8 6-8.2 9.1-12.3.2-.3.5-.7.7-1.1 0-.4.5-1.3.7-1.7z"/><path d="m511.8 383.3c.9-4.2 1.8-8.3 2.8-12.4.3-1.3.7-2.5 1.1-3.8.2-.7.8-1 1.8-.8 1.2.2 13.4 3.1 18.4 4.2 4.1.9 19.2 4.2 19.7 4.4.8.3 1.1.9 1 1.7-.5 3-1 6-1.5 9-.2 1.4-.5 2.8-.7 4.3-.2 2.8-2.1 11-2.1 11s-.4 1.8-2.7 1.4-4.3-1.1-5.5-1.3c-2.2-.5-4.4-1-6.7-1.4-2.5-.4-5-1.2-7.5-1.8-3.5-.9-16.8-1.8-17.4-1.8-1.2 0-1.8-.4-2-1.6-.1-.8.7-8.3 1.3-11.1zm42-2.9c.1-2.7-.2-3.1-2-3.7-3.4-1.2-15-3.6-17.2-4.3-4.9-1.5-10-2.4-15.1-3.3-2.2-.4-2.2-.4-2.7 1.9-.4 1.7-3.6 16.4-3.8 17.7-.2.9-.4 1.8-.5 2.7-.3 2.3.6 2.6 2.3 2.9 1.6.3 16.3 2.1 17.6 2.4 4 .9 8.1 1.8 12.1 2.6 1.3.3 2.7.3 4.1.3 1.2 0 1.4-.2 1.7-1.4.3-1 1.4-4.9 1.6-5.9.4-2.3.7-4.6 1.1-6.9.1-.1.6-3.9.8-5z"/></g><path d="m264.7 240c0 1.3.6 1.8 1.3 2.4 2.2 2 4.5 4 6.8 5.9 1.3 1.1 2.7 2.2 4.2 3.1.8.6 1.6.4 2.1-.3s.5-1.7-.1-2.3c-.4-.4-.9-.8-1.4-1-3.4-1.4-5.6-4.2-8.3-6.5-.7-.6-.9-1.4-.4-2.3s1.1-1.8 1.7-2.8c.2-.4.6-.8.6-1.3s-.2-1.1-.5-1.4c-.4-.4-1-.2-1.5.1-.3.2-.5.5-.8.8-1 1.5-2.1 2.9-3.1 4.4-.4.5-.5 1-.6 1.2zm25.1-17.8c0-.9-.9-2.1-1.6-2.1-.8 0-1.9 1.2-1.8 2.1 0 .9.9 1.7 1.7 1.7.9 0 1.7-.8 1.7-1.7z" fill="none"/><path d="m322.4 252.2v.2c2.3-.2 4.6-.2 6.8-.6 3.6-.6 7-1.8 9.7-4.4 6.1-5.8 10.7-12.4 12.4-20.8.3-1.6.7-3.3.6-5-.2-3.3-.6-6.7-1.1-10-.5-3.1-2.2-5.7-4.8-7.6-3-2.1-6.2-3.5-10-3.5-.9 0-1.8 0-2.7 0-4.3-.2-8.2 1.1-11.7 3.3-2.2 1.4-4.3 3.1-5.8 5.3-3.2 4.7-5.9 9.7-6.9 15.5-.5 2.7-.9 5.4-.8 8.2s.1 5.5.1 8.3c0 1.5.2 3 1 4.3 1.2 2.1 2.8 3.9 4.8 5.3 1.3.9 2.8 1.4 4.4 1.4 1.3.2 2.6.1 4 .1z" fill="none"/><path d="m326.9 262.2c-.1-.2-.4-.4-.3-.6.1-2.4 1.5-4.1 3.9-4.8 6.1-1.9 11.7-4.6 16.5-8.8.4-.4.7-.5 1.2 0 .8 1.1 1.7 2.1 2.6 3.2.5.7.9 1.4 1.3 2.2.4.9.2 1.3-.6 1.8-.3.2-.7.3-1 .4-3.4 1.2-6.8 2.6-10.3 3.6-3.7 1-7.5 1.7-11.2 2.5-.8.2-1.4.3-2.1.5z" fill="none"/><path d="m305.6 285.4c-.8-.5-1.7-1-2.4-1.5-.1-.1-.2-.4-.1-.7s.2-.6.3-.8c1.7-3.8 3.4-7.6 5.1-11.4.1-.3.3-.7.5-.9s.6-.4.7-.3c1 .5 2 .2 3 .2.6 0 .8.2.6.8-.1.3-.2.5-.4.8-2 4.1-4.1 8.3-6.1 12.4-.2.4-.4.8-.6 1.1-.1 0-.4.1-.6.3z" fill="none"/><path d="m220.3 235.3c-.1-.3-.2-.6-.2-.7.6-1.2 1.2-2.3 1.8-3.5.3-.5.7-.5 1-.1.5.8.8 1.6 1.1 2.4.1.2-.2.8-.4.8-1 .4-2.1.7-3.3 1.1z" fill="none"/><path d="m264.7 240c.1-.2.2-.7.5-1.2 1-1.5 2-3 3.1-4.4.2-.3.5-.5.8-.8.5-.4 1.1-.5 1.5-.1.3.3.5.9.5 1.4 0 .4-.3.9-.6 1.3-.5.9-1.1 1.8-1.7 2.8-.5.8-.4 1.7.4 2.3 2.7 2.3 4.9 5.1 8.3 6.5.5.2 1 .6 1.4 1 .6.6.6 1.7.1 2.3-.5.7-1.2.9-2.1.3-1.4-1-2.8-2-4.2-3.1-2.3-1.9-4.5-3.9-6.8-5.9-.6-.5-1.2-1.1-1.2-2.4z" fill-rule="evenodd"/><path d="m289.8 222.2c0 .9-.8 1.7-1.7 1.7-.8 0-1.7-.9-1.7-1.7 0-.9 1-2.2 1.8-2.1.6 0 1.5 1.2 1.6 2.1z" fill-rule="evenodd"/><path d="m313.9 250.8c-6.2-2.9-5.8-15.2-5.9-17.9-.1-2.8.3-5.5.8-8.2 1.1-5.7 3.7-10.7 6.9-15.5 1.5-2.2 8.4-9.1 17.5-8.7 7-.5 9.7 1.4 12.7 3.5 7.2 4.3 6.1 15.2 5.3 22.5s-6.4 15-12.4 20.8c-7.8 5.3-18 6.8-24.9 3.5zm12.5-1.4c14.6-4.8 18.6-14 19.8-16.8 4.6-11.5 2.3-17.3 1.7-20.3-3.4-8.6-16.6-10-20.4-8.2-7.2 2.7-14.6 11.4-16.2 23.1s-.8 22.7 15.1 22.2z" fill-rule="evenodd"/><path d="m329 228.9c.9 0 1.8 0 2.4-.9 1-1.3 1.6-2.8 1.8-4.4.1-1.1-.5-1.8-1.6-1.9-2.6-.2-5.5 3.2-5 5.7.2.8.6 1.2 1.4 1.4.3.1.6.1 1 .1z" fill="none"/><path d="m329 228.9c-.4 0-.7 0-1.1-.1-.8-.1-1.2-.6-1.4-1.4-.5-2.5 2.5-5.9 5-5.7 1.1.1 1.8.8 1.6 1.9-.2 1.6-.8 3.1-1.8 4.4-.5.9-1.4.9-2.3.9z" fill-rule="evenodd"/></svg>