<?xml version="1.0" encoding="UTF-8" standalone="no"?>
<svg
   xmlns:dc="http://purl.org/dc/elements/1.1/"
   xmlns:cc="http://creativecommons.org/ns#"
   xmlns:rdf="http://www.w3.org/1999/02/22-rdf-syntax-ns#"
   xmlns:svg="http://www.w3.org/2000/svg"
   xmlns="http://www.w3.org/2000/svg"
   viewBox="0 0 840.85467 745.39343"
   height="745.39343"
   width="840.85468"
   xml:space="preserve"
   id="svg2"
   version="1.1"><metadata
     id="metadata8"><rdf:RDF><cc:Work
         rdf:about=""><dc:format>image/svg+xml</dc:format><dc:type
           rdf:resource="http://purl.org/dc/dcmitype/StillImage" /><dc:title></dc:title></cc:Work></rdf:RDF></metadata><defs
     id="defs6" /><g
     transform="matrix(1.3333333,0,0,-1.3333333,0,843.04131)"
     id="g10"><g
       transform="scale(0.1)"
       id="g12"><path
         id="path64"
         style="fill:#e5f3fc;fill-opacity:1;fill-rule:evenodd;stroke:none"
         d="m 1310.04,4764.01 -59.37,201.88 c -92.15,313.3 -1.44,651.82 235.02,877.07 206.83,197.03 531.9,197.03 738.73,0 70.41,-67.07 170.68,-92.64 264.61,-67.46 93.93,25.17 167.98,97.44 195.42,190.73 62.18,211.4 256.19,356.58 476.55,356.58 220.36,0 414.37,-145.18 476.54,-356.58 39.68,-134.95 178.34,-215 315.06,-181.9 325.19,78.73 663.39,-66.18 830.68,-355.94 167.29,-289.75 123.69,-655.08 -107.08,-897.34 l -3366.16,232.96" /><path
         id="path66"
         style="fill:#d0e5f7;fill-opacity:1;fill-rule:evenodd;stroke:none"
         d="m 4632.1,3527.6 c 129.85,107.11 276.78,166.73 449.44,182.76 377.28,35.02 672.69,352.51 672.69,738.98 0,409.9 -332.29,742.18 -742.17,742.18 -129.73,0 -251.67,-33.29 -357.77,-91.78 -283.9,-156.52 -621.75,-114.03 -858.04,107.91 -153.99,144.64 -361.25,233.26 -589.19,233.26 -233.72,0 -445.68,-93.15 -600.79,-244.34 -281.64,-274.52 -729.08,-278.79 -1015.9,-9.69 -105.12,98.61 -246.52,159.02 -402.05,159.02 -324.636,0 -587.816,-263.17 -587.816,-587.8 0,-171.51 73.449,-325.86 190.617,-433.29 145.172,-133.15 229.999,-291.16 260.719,-485.73 17.57,-111.21 53.99,-216.16 105.84,-311.48 H 4632.1" /><path
         id="path68"
         style="fill:#e5f3fc;fill-opacity:1;fill-rule:evenodd;stroke:none"
         d="m 1447.15,5077.6 72.06,-309.62 -65.76,14.61 70.05,-33.06 28.21,-121.37 31.26,-134.31 -122.6,44.43 133.19,-89.97 35.5,-152.55 -117.97,51.22 129.46,-100.59 15.72,-67.66 h -209.12 -209.1 l 24.22,104.03 122.05,89.57 -107.65,-27.63 47.64,204.76 106.1,76.4 -95.55,-31.04 7.75,33.34 40.31,173.28 65.93,50.3 -57.01,-11.94 55.31,237.8" /><path
         id="path70"
         style="fill:#e5f3fc;fill-opacity:1;fill-rule:evenodd;stroke:none"
         d="m 2432.79,5113.23 72.01,-309.63 -65.73,14.62 70.03,-33.06 28.25,-121.36 31.24,-134.32 -122.6,44.42 133.18,-89.97 35.49,-152.54 -117.97,51.21 129.45,-100.57 15.75,-67.68 h -209.1 -209.13 l 24.2,104.03 122.08,89.58 -107.66,-27.63 47.64,204.77 106.1,76.38 -95.55,-31.02 7.75,33.34 40.32,173.28 65.93,50.28 -56.99,-11.93 55.31,237.8" /><path
         id="path72"
         style="fill:#e5f3fc;fill-opacity:1;fill-rule:evenodd;stroke:none"
         d="m 3258.1,4976.67 72.03,-309.63 -65.75,14.6 70.05,-33.04 28.21,-121.38 31.26,-134.3 -122.6,44.42 133.21,-89.97 35.49,-152.54 -117.98,51.21 129.46,-100.57 15.72,-67.69 H 3258.1 3049 l 24.19,104.04 122.06,89.57 -107.66,-27.62 47.64,204.75 106.11,76.4 -95.55,-31.03 7.75,33.33 40.32,173.29 65.92,50.28 -57.01,-11.93 55.33,237.81" /><path
         id="path74"
         style="fill:#e5f3fc;fill-opacity:1;fill-rule:evenodd;stroke:none"
         d="m 4259.43,5013.69 72.03,-309.63 -65.74,14.62 70.04,-33.05 28.24,-121.37 31.24,-134.31 -122.61,44.41 133.21,-89.97 35.48,-152.53 -117.98,51.21 129.47,-100.57 15.75,-67.69 h -209.13 -209.1 l 24.2,104.02 122.07,89.6 -107.66,-27.63 47.63,204.74 106.1,76.41 -95.56,-31.03 7.78,33.34 40.32,173.28 65.91,50.28 -56.99,-11.93 55.3,237.8" /><path
         id="path76"
         style="fill:#e5f3fc;fill-opacity:1;fill-rule:evenodd;stroke:none"
         d="m 5007.46,4957.7 72.03,-309.63 -65.74,14.62 70.03,-33.05 28.24,-121.38 31.23,-134.31 -122.59,44.42 133.2,-89.97 35.49,-152.55 -117.98,51.22 129.46,-100.58 15.75,-67.67 h -209.12 -209.12 l 24.2,104.04 122.06,89.56 -107.63,-27.61 47.61,204.74 106.12,76.4 -95.56,-31.03 7.75,33.34 40.32,173.29 65.93,50.28 -57.01,-11.94 55.33,237.81" /><path
         id="path78"
         style="fill:#42628f;fill-opacity:1;fill-rule:evenodd;stroke:none"
         d="m 6306.41,3527.6 -18.75,4.21 c -270.86,60.88 -478.7,169 -642.18,334.02 l -217.87,219.91 c -133.58,134.85 -380.81,179.94 -589.41,107.47 -251.46,-87.37 -550.45,-53.58 -752.6,88.95 -172.12,121.34 -443.59,129.83 -630.07,19.69 l -33.93,-20.05 c -246.13,-145.38 -594.85,-145.98 -841.96,-1.48 l -160.21,93.69 c -176.4,103.15 -425.89,102.05 -600.47,-2.65 -80.27,-48.13 -175.83,-80.68 -286.1,-97.36 -69.74,-10.54 -137.74,-13.57 -203.84,-9.17 -210.36,14.1 -401.329,-68.9 -479.387,-207.92 C 699.402,3789.33 407.555,3605.12 15.7031,3530.57 L 0,3527.6 h 6306.41" /><path
         id="path80"
         style="fill:#ffffff;fill-opacity:1;fill-rule:evenodd;stroke:none"
         d="m 1977.28,4954 93.04,-399.99 -84.93,18.88 90.45,-42.71 36.5,-156.78 40.35,-173.51 -158.37,57.38 172.06,-116.23 45.84,-197.05 -152.4,66.16 167.25,-129.94 20.33,-87.42 h -270.12 -270.17 l 31.27,134.39 157.68,115.73 -139.05,-35.72 61.53,264.53 137.09,98.7 -123.47,-40.1 10.03,43.08 52.07,223.85 85.18,64.96 -73.64,-15.42 71.48,307.21" /><path
         id="path82"
         style="fill:#ffffff;fill-opacity:1;fill-rule:evenodd;stroke:none"
         d="m 2880.15,5505.63 135.14,-580.78 -123.33,27.39 131.37,-62 52.95,-227.66 58.61,-251.94 -229.96,83.32 249.84,-168.77 66.57,-286.14 -221.31,96.07 242.87,-188.67 29.52,-126.95 h -392.27 -392.26 l 45.4,195.16 228.96,168.03 -201.93,-51.84 89.37,384.08 199.03,143.32 -179.24,-58.22 14.55,62.55 75.63,325.04 123.66,94.32 -106.94,-22.37 103.77,446.06" /><path
         id="path84"
         style="fill:#ffffff;fill-opacity:1;fill-rule:evenodd;stroke:none"
         d="m 3687.47,4915.1 91.84,-394.77 -83.83,18.63 89.3,-42.15 36.01,-154.73 39.82,-171.26 -156.31,56.65 169.84,-114.71 45.22,-194.52 -150.41,65.33 165.06,-128.26 20.09,-86.27 h -266.63 -266.61 l 30.84,132.62 155.63,114.23 -137.25,-35.21 60.74,261.04 135.27,97.42 -121.81,-39.58 9.89,42.52 51.38,220.94 84.06,64.1 -72.67,-15.21 70.53,303.19" /><path
         id="path86"
         style="fill:#ffffff;fill-opacity:1;fill-rule:evenodd;stroke:none"
         d="m 4576.24,5221.19 117.54,-505.32 -107.28,23.84 114.28,-53.94 46.08,-198.08 51.01,-219.2 -200.08,72.5 217.38,-146.84 57.9,-248.96 -192.55,83.59 211.29,-164.14 25.69,-110.44 h -341.26 -341.29 l 39.5,169.77 199.19,146.19 -175.69,-45.09 77.74,334.17 173.19,124.69 -155.96,-50.65 12.66,54.41 65.8,282.82 107.59,82.05 -93.04,-19.47 90.31,388.1" /><path
         id="path88"
         style="fill:#2f4a70;fill-opacity:1;fill-rule:evenodd;stroke:none"
         d="m 6306.41,3527.6 -18.75,2.08 c -270.86,30.46 -478.7,84.52 -642.18,167.04 l -217.87,109.93 c -133.58,67.43 -380.81,89.99 -589.41,53.73 -251.46,-43.66 -550.45,-26.77 -752.6,44.5 -172.12,60.66 -443.59,64.89 -630.07,9.85 l -33.93,-10.05 c -246.13,-72.67 -594.85,-72.98 -841.96,-0.73 l -160.21,46.85 c -176.4,51.56 -425.89,51.02 -600.47,-1.32 -80.27,-24.08 -175.83,-40.35 -286.1,-48.69 -69.74,-5.27 -137.74,-6.78 -203.84,-4.58 -210.36,7.04 -401.329,-34.45 -479.387,-103.98 C 699.402,3658.44 407.555,3566.37 15.7031,3529.06 L 0,3527.6 h 6306.41" /><path
         id="path90"
         style="fill:#ffffff;fill-opacity:1;fill-rule:evenodd;stroke:none"
         d="m 2111.62,5149.95 c 220.74,0 400.78,180.04 400.78,400.78 0,220.74 -180.04,400.78 -400.78,400.78 -220.74,0 -400.78,-180.04 -400.78,-400.78 0,-220.74 180.04,-400.78 400.78,-400.78" /><path
         id="path92"
         style="fill:#f2fafe;fill-opacity:1;fill-rule:evenodd;stroke:none"
         d="m 1310.04,2291.17 -59.37,-201.89 c -92.15,-313.3 -1.44,-651.83 235.02,-877.09 206.83,-197.02 531.9,-197.02 738.73,0 70.41,67.09 170.68,92.63 264.61,67.48 93.93,-25.17 167.98,-97.44 195.42,-190.73 62.18,-211.401 256.19,-356.581 476.55,-356.581 220.36,0 414.37,145.18 476.54,356.581 39.68,134.96 178.34,215 315.06,181.89 325.19,-78.72 663.39,66.18 830.68,355.94 167.29,289.75 123.69,655.07 -107.08,897.33 L 1310.04,2291.17" /><path
         id="path94"
         style="fill:#e9f5fc;fill-opacity:1;fill-rule:evenodd;stroke:none"
         d="m 4632.1,3527.6 c 129.85,-107.15 276.78,-166.76 449.44,-182.8 377.28,-35.03 672.69,-352.51 672.69,-738.98 0,-409.89 -332.29,-742.18 -742.17,-742.18 -129.73,0 -251.67,33.29 -357.77,91.79 -283.9,156.53 -621.75,114.04 -858.04,-107.91 -153.99,-144.63 -361.25,-233.25 -589.19,-233.25 -233.72,0 -445.68,93.14 -600.79,244.34 -281.64,274.49 -729.08,278.78 -1015.9,9.68 -105.12,-98.61 -246.52,-159.02 -402.05,-159.02 -324.636,0 -587.816,263.16 -587.816,587.82 0,171.48 73.449,325.84 190.617,433.28 145.172,133.12 229.999,291.15 260.719,485.71 17.57,111.22 53.99,216.17 105.84,311.52 H 4632.1" /><path
         id="path96"
         style="fill:#d0e5f7;fill-opacity:1;fill-rule:evenodd;stroke:none"
         d="m 1447.15,1977.56 72.06,309.62 -65.76,-14.6 70.05,33.04 28.21,121.38 31.26,134.31 -122.6,-44.42 133.19,89.96 35.5,152.55 -117.97,-51.22 129.46,100.58 15.72,67.68 h -209.12 -209.1 l 24.22,-104.01 122.05,-89.6 -107.65,27.63 47.64,-204.76 106.1,-76.38 -95.55,31.02 7.75,-33.34 40.31,-173.29 65.93,-50.28 -57.01,11.93 55.31,-237.8" /><path
         id="path98"
         style="fill:#d0e5f7;fill-opacity:1;fill-rule:evenodd;stroke:none"
         d="m 2432.79,1941.92 72.01,309.64 -65.73,-14.59 70.03,33.05 28.25,121.35 31.24,134.32 -122.6,-44.42 133.18,89.95 35.49,152.56 -117.97,-51.2 129.45,100.58 15.75,67.65 h -209.1 -209.13 l 24.2,-104.03 122.08,-89.56 -107.66,27.62 47.64,-204.75 106.1,-76.41 -95.55,31.03 7.75,-33.34 40.32,-173.27 65.93,-50.29 -56.99,11.92 55.31,-237.81" /><path
         id="path100"
         style="fill:#d0e5f7;fill-opacity:1;fill-rule:evenodd;stroke:none"
         d="m 3258.1,2078.5 72.03,309.63 -65.75,-14.62 70.05,33.06 28.21,121.37 31.26,134.31 -122.6,-44.43 133.21,89.97 35.49,152.53 -117.98,-51.19 129.46,100.58 15.72,67.66 H 3258.1 3049 l 24.19,-104.01 122.06,-89.59 -107.66,27.62 47.64,-204.73 106.11,-76.42 -95.55,31.06 7.75,-33.36 40.32,-173.29 65.92,-50.27 -57.01,11.93 55.33,-237.81" /><path
         id="path102"
         style="fill:#d0e5f7;fill-opacity:1;fill-rule:evenodd;stroke:none"
         d="m 4259.43,2041.46 72.03,309.64 -65.74,-14.62 70.04,33.05 28.24,121.39 31.24,134.3 -122.61,-44.41 133.21,89.95 35.48,152.55 -117.98,-51.2 129.47,100.58 15.75,67.65 h -209.13 -209.1 l 24.2,-104.01 122.07,-89.57 -107.66,27.62 47.63,-204.76 106.1,-76.41 -95.56,31.05 7.78,-33.34 40.32,-173.28 65.91,-50.29 -56.99,11.92 55.3,-237.81" /><path
         id="path104"
         style="fill:#d0e5f7;fill-opacity:1;fill-rule:evenodd;stroke:none"
         d="m 5007.46,2097.47 72.03,309.62 -65.74,-14.61 70.03,33.05 28.24,121.37 31.23,134.32 -122.59,-44.44 133.2,89.99 35.49,152.53 -117.98,-51.22 129.46,100.59 15.75,67.68 h -209.12 -209.12 l 24.2,-104.04 122.06,-89.58 -107.63,27.64 47.61,-204.76 106.12,-76.4 -95.56,31.03 7.75,-33.34 40.32,-173.29 65.93,-50.27 -57.01,11.93 55.33,-237.8" /><path
         id="path106"
         style="fill:#b8d2ef;fill-opacity:1;fill-rule:evenodd;stroke:none"
         d="m 6306.41,3527.6 -18.75,-4.22 c -270.86,-60.92 -478.7,-169.04 -642.18,-334.04 l -217.87,-219.91 c -133.58,-134.84 -380.81,-179.94 -589.41,-107.48 -251.46,87.36 -550.45,53.57 -752.6,-88.94 -172.12,-121.34 -443.59,-129.85 -630.07,-19.7 l -33.93,20.05 c -246.13,145.37 -594.85,145.99 -841.96,1.48 l -160.21,-93.69 c -176.4,-103.13 -425.89,-102.04 -600.47,2.64 -80.27,48.16 -175.83,80.71 -286.1,97.37 -69.74,10.55 -137.74,13.6 -203.84,9.16 -210.36,-14.09 -401.329,68.93 -479.387,207.95 C 699.402,3265.84 407.555,3450.06 15.7031,3524.6 L 0,3527.6 h 6306.41" /><path
         id="path108"
         style="fill:#d3e9f8;fill-opacity:1;fill-rule:evenodd;stroke:none"
         d="m 1977.28,2101.17 93.04,399.96 -84.93,-18.85 90.45,42.71 36.5,156.78 40.35,173.49 -158.37,-57.36 172.06,116.24 45.84,197.05 -152.4,-66.17 167.25,129.92 20.33,87.44 h -270.12 -270.17 l 31.27,-134.4 157.68,-115.7 -139.05,35.68 61.53,-264.53 137.09,-98.68 -123.47,40.09 10.03,-43.07 52.07,-223.84 85.18,-64.96 -73.64,15.4 71.48,-307.2" /><path
         id="path110"
         style="fill:#d3e9f8;fill-opacity:1;fill-rule:evenodd;stroke:none"
         d="m 2880.15,1549.52 135.14,580.8 -123.33,-27.39 131.37,62 52.95,227.67 58.61,251.94 -229.96,-83.33 249.84,168.77 66.57,286.13 -221.31,-96.06 242.87,188.68 29.52,126.94 h -392.27 -392.26 l 45.4,-195.15 228.96,-168.01 -201.93,51.8 89.37,-384.09 199.03,-143.3 -179.24,58.21 14.55,-62.53 75.63,-325.06 123.66,-94.32 -106.94,22.38 103.77,-446.08" /><path
         id="path112"
         style="fill:#d3e9f8;fill-opacity:1;fill-rule:evenodd;stroke:none"
         d="m 3687.47,2140.07 91.84,394.78 -83.83,-18.64 89.3,42.14 36.01,154.73 39.82,171.25 -156.31,-56.63 169.84,114.71 45.22,194.5 -150.41,-65.29 165.06,128.22 20.09,86.28 h -266.63 -266.61 l 30.84,-132.63 155.63,-114.21 -137.25,35.23 60.74,-261.08 135.27,-97.41 -121.81,39.59 9.89,-42.53 51.38,-220.92 84.06,-64.13 -72.67,15.23 70.53,-303.19" /><path
         id="path114"
         style="fill:#d3e9f8;fill-opacity:1;fill-rule:evenodd;stroke:none"
         d="m 4576.24,1833.99 117.54,505.3 -107.28,-23.85 114.28,53.96 46.08,198.08 51.01,219.19 -200.08,-72.5 217.38,146.85 57.9,248.94 -192.55,-83.57 211.29,164.13 25.69,110.46 h -341.26 -341.29 l 39.5,-169.79 199.19,-146.2 -175.69,45.11 77.74,-334.17 173.19,-124.68 -155.96,50.65 12.66,-54.42 65.8,-282.8 107.59,-82.08 -93.04,19.49 90.31,-388.1" /><path
         id="path116"
         style="fill:#99b9df;fill-opacity:1;fill-rule:evenodd;stroke:none"
         d="m 6306.41,3527.6 -18.75,-2.13 c -270.86,-30.46 -478.7,-84.5 -642.18,-166.99 L 5427.61,3248.5 c -133.58,-67.41 -380.81,-89.97 -589.41,-53.73 -251.46,43.68 -550.45,26.79 -752.6,-44.47 -172.12,-60.67 -443.59,-64.92 -630.07,-9.84 l -33.93,10.01 c -246.13,72.7 -594.85,72.98 -841.96,0.74 l -160.21,-46.84 c -176.4,-51.58 -425.89,-51.01 -600.47,1.32 -80.27,24.07 -175.83,40.34 -286.1,48.69 -69.74,5.28 -137.74,6.8 -203.84,4.58 -210.36,-7.06 -401.329,34.46 -479.387,103.96 -150.231,133.79 -442.078,225.91 -833.9299,263.17 L 0,3527.6 h 6306.41" /><path
         id="path118"
         style="fill:#ffffff;fill-opacity:1;fill-rule:evenodd;stroke:none"
         d="m 2111.62,1103.65 c 220.74,0 400.78,180.06 400.78,400.79 0,220.73 -180.04,400.79 -400.78,400.79 -220.74,0 -400.78,-180.06 -400.78,-400.79 0,-220.73 180.04,-400.79 400.78,-400.79" /></g></g></svg>